<svg width="158" height="47" viewBox="0 0 158 47" fill="none" xmlns="http://www.w3.org/2000/svg">
<g clip-path="url(#clip0_4_49)">
<path d="M0 6.26667C0 2.80568 2.79601 0 6.24506 0H151.755C155.204 0 158 2.80568 158 6.26667V40.7333C158 44.1944 155.204 47 151.755 47H6.24506C2.79601 47 0 44.1944 0 40.7333V6.26667Z" fill="#202020"/>
<path fill-rule="evenodd" clip-rule="evenodd" d="M0 40.7333V6.26667C0 2.80568 2.79601 0 6.24506 0H151.755C155.204 0 158 2.80568 158 6.26667V40.7333C158 44.1944 155.204 47 151.755 47H6.24506C2.79601 47 0 44.1944 0 40.7333ZM0.936759 40.7333V6.26667C0.936759 3.32484 3.31338 0.94 6.24506 0.94H151.755C154.687 0.94 157.063 3.32484 157.063 6.26667V40.7333C157.063 43.6752 154.687 46.06 151.755 46.06H6.24506C3.31338 46.06 0.936759 43.6752 0.936759 40.7333Z" fill="white" fill-opacity="0.3"/>
<path d="M43.4096 22.9678C43.3935 20.1809 44.6312 18.0805 47.1308 16.5317C45.7328 14.4886 43.6178 13.3648 40.8298 13.1482C38.19 12.9358 35.3019 14.7174 34.2444 14.7174C33.1268 14.7174 30.5711 13.2218 28.5603 13.2218C24.4103 13.2872 20 16.5971 20 23.3315C20 25.3216 20.3565 27.377 21.0695 29.4938C22.0229 32.2807 25.4598 39.109 29.0449 38.9987C30.9196 38.9537 32.2455 37.6419 34.685 37.6419C37.0524 37.6419 38.2781 38.9987 40.3693 38.9987C43.9864 38.9454 47.0948 32.7385 48 29.9431C43.1492 27.6099 43.4096 23.1109 43.4096 22.9678ZM39.1993 10.5044C41.2304 8.04435 41.0461 5.80503 40.9861 5C39.1916 5.10626 37.1165 6.24633 35.9348 7.64797C34.6329 9.15177 33.8679 11.0111 34.0321 13.1074C35.9708 13.2586 37.7414 12.2411 39.1993 10.5044Z" fill="white"/>
<path d="M73 34H70.7764L69.5583 30.4752H65.3251L64.1648 34H62L66.1943 22H68.7849L73 34ZM69.1913 28.9964L68.0897 25.8629C67.9735 25.5428 67.7549 24.789 67.4328 23.6023H67.3939C67.2656 24.1127 67.059 24.8666 66.7749 25.8629L65.6932 28.9964H69.1913Z" fill="white"/>
<path d="M83 30.2709C83 31.7001 82.6184 32.8297 81.8546 33.6592C81.1708 34.3974 80.3215 34.766 79.3076 34.766C78.2134 34.766 77.4273 34.3684 76.9486 33.5734H76.9139V38H75.0683V28.9389C75.0683 28.0404 75.0448 27.1183 75 26.1725H76.6232L76.7262 27.5045H76.7606C77.3762 26.5009 78.3105 26 79.5639 26C80.5439 26 81.362 26.3914 82.0165 27.1752C82.6728 27.9599 83 28.9915 83 30.2709ZM81.1197 30.3392C81.1197 29.5213 80.9379 28.847 80.5727 28.3163C80.1736 27.7628 79.6376 27.4861 78.9659 27.4861C78.5103 27.4861 78.0967 27.6402 77.7269 27.9441C77.3563 28.2506 77.114 28.6508 77.0006 29.1465C76.9436 29.3776 76.9148 29.5668 76.9148 29.7157V31.1168C76.9148 31.7281 77.1001 32.244 77.4707 32.665C77.8413 33.0863 78.3226 33.2965 78.9148 33.2965C79.6099 33.2965 80.151 33.025 80.5379 32.4838C80.9258 31.9418 81.1197 31.2272 81.1197 30.3392Z" fill="white"/>
<path d="M92 30.2709C92 31.7001 91.6181 32.8297 90.8537 33.6592C90.1706 34.3974 89.3213 34.766 88.3074 34.766C87.213 34.766 86.4269 34.3684 85.9491 33.5734H85.9143V38H84.0686V28.9389C84.0686 28.0404 84.0451 27.1183 84 26.1725H85.6236L85.7263 27.5045H85.7611C86.3758 26.5009 87.3101 26 88.5646 26C89.5437 26 90.3619 26.3914 91.0182 27.1752C91.6718 27.9599 92 28.9915 92 30.2709ZM90.1195 30.3392C90.1195 29.5213 89.9369 28.847 89.5716 28.3163C89.1725 27.7628 88.6382 27.4861 87.9655 27.4861C87.5091 27.4861 87.0963 27.6402 86.7257 27.9441C86.355 28.2506 86.1136 28.6508 86.0001 29.1465C85.9437 29.3776 85.9143 29.5668 85.9143 29.7157V31.1168C85.9143 31.7281 86.0996 32.244 86.4685 32.665C86.8391 33.0854 87.3205 33.2965 87.9145 33.2965C88.6097 33.2965 89.1508 33.025 89.5378 32.4838C89.9256 31.9418 90.1195 31.2272 90.1195 30.3392Z" fill="white"/>
<path d="M103 30.5586C103 31.5501 102.667 32.3569 101.998 32.9796C101.263 33.6603 100.239 34 98.9243 34C97.7101 34 96.7367 33.7584 96 33.2739L96.4188 31.7175C97.2125 32.2134 98.0832 32.4619 99.0319 32.4619C99.7127 32.4619 100.243 32.3025 100.623 31.9855C101.002 31.6685 101.192 31.2427 101.192 30.7119C101.192 30.2389 101.035 29.8404 100.723 29.5172C100.411 29.1939 99.8916 28.8935 99.166 28.6158C97.1904 27.8547 96.2036 26.7396 96.2036 25.2733C96.2036 24.3151 96.5494 23.5294 97.2421 22.918C97.9323 22.3057 98.8531 22 100.004 22C101.031 22 101.884 22.1848 102.565 22.5536L102.113 24.0759C101.477 23.7185 100.758 23.5399 99.9535 23.5399C99.3178 23.5399 98.8208 23.7019 98.4648 24.0243C98.1638 24.3124 98.0128 24.6637 98.0128 25.0797C98.0128 25.5405 98.185 25.9215 98.5308 26.2211C98.8318 26.4979 99.3789 26.7974 100.172 27.1206C101.143 27.5244 101.856 27.9966 102.315 28.5379C102.772 29.0774 103 29.7528 103 30.5586Z" fill="white"/>
<path d="M109.5 27.9483H107.69V31.39C107.69 32.2655 108.009 32.7028 108.648 32.7028C108.942 32.7028 109.185 32.6783 109.378 32.6297L109.423 33.8257C109.1 33.9415 108.674 34 108.146 34C107.498 34 106.991 33.8101 106.625 33.4312C106.261 33.0514 106.078 32.4145 106.078 31.52V27.9468H105V26.7648H106.078V25.4669L107.69 25V26.7648H109.5V27.9483Z" fill="white"/>
<path d="M119 29.4195C119 30.7458 118.641 31.8347 117.924 32.6863C117.173 33.5628 116.175 34 114.932 34C113.733 34 112.779 33.58 112.067 32.74C111.356 31.9004 111 30.8402 111 29.5625C111 28.2254 111.366 27.1302 112.1 26.2787C112.833 25.4262 113.822 25 115.066 25C116.264 25 117.229 25.4199 117.957 26.2607C118.653 27.0762 119 28.1292 119 29.4195ZM117.117 29.4815C117.117 28.6857 116.956 28.0033 116.63 27.4341C116.25 26.7453 115.706 26.4018 115.001 26.4018C114.272 26.4018 113.718 26.7462 113.337 27.4341C113.011 28.0042 112.85 28.6974 112.85 29.5175C112.85 30.3133 113.011 30.9958 113.337 31.5639C113.73 32.2528 114.278 32.5964 114.985 32.5964C115.678 32.5964 116.222 32.2458 116.614 31.5461C116.949 30.9661 117.117 30.2764 117.117 29.4815Z" fill="white"/>
<path d="M126 26.9042C125.795 26.8684 125.575 26.85 125.346 26.85C124.615 26.85 124.05 27.1101 123.653 27.6312C123.307 28.0907 123.134 28.6715 123.134 29.3727V34H121.058L121.078 27.9584C121.078 26.9419 121.051 26.0164 121 25.182H122.808L122.884 26.8693H122.942C123.161 26.2894 123.507 25.8225 123.98 25.4724C124.443 25.1571 124.942 25 125.481 25C125.673 25 125.846 25.0129 126 25.0358V26.9042Z" fill="white"/>
<path d="M136 29.1076C136 29.4517 135.977 29.7419 135.927 29.9788H129.927C129.95 30.8329 130.24 31.4861 130.798 31.9368C131.303 32.3395 131.957 32.5413 132.76 32.5413C133.648 32.5413 134.459 32.4053 135.188 32.1321L135.501 33.4657C134.649 33.8225 133.644 34 132.483 34C131.087 34 129.992 33.6053 129.194 32.8169C128.399 32.0285 128 30.9699 128 29.6419C128 28.3381 128.371 27.2524 129.113 26.3866C129.889 25.4622 130.939 25 132.26 25C133.557 25 134.539 25.4622 135.206 26.3866C135.735 27.1209 136 28.0291 136 29.1076ZM134.093 28.6093C134.106 28.0399 133.976 27.548 133.705 27.1326C133.359 26.5983 132.827 26.3316 132.111 26.3316C131.457 26.3316 130.925 26.592 130.519 27.1146C130.186 27.5299 129.988 28.0282 129.927 28.6084H134.093V28.6093Z" fill="white"/>
<path d="M66.8597 13.8685H67.9943C69.0903 13.8685 69.7326 14.2864 69.7326 14.9906V15C69.7326 15.6526 69.057 16.0798 68.0276 16.0798C66.9759 16.0798 66.3064 15.7277 66.2179 15.1033L66.2122 15.0657H65L65.0057 15.1221C65.0886 16.2395 66.2621 17 68.0276 17C69.7379 17 71 16.1643 71 15.047V15.0376C71 14.1268 70.3411 13.4836 69.2731 13.3709V13.3333C70.1587 13.1596 70.7563 12.5305 70.7563 11.7793V11.77C70.7563 10.723 69.6603 10 68.0553 10C66.3836 10 65.2933 10.6995 65.2104 11.8451L65.2047 11.9108H66.395L66.4003 11.8451C66.4945 11.2629 67.0758 10.9202 68.0166 10.9202C68.9741 10.9202 69.5278 11.2817 69.5278 11.8826V11.892C69.5278 12.5399 68.9132 12.9859 67.9614 12.9859H66.8597V13.8685Z" fill="white"/>
<path d="M74.5706 17C75.1969 17 75.7383 16.604 76.0112 15.9826H76.0336V16.8955H77V12.9083C77 11.7479 76.2707 11 75.121 11C73.9621 11 73.2597 11.7644 73.1924 12.7599L73.1881 12.8204H74.1007L74.1096 12.7708C74.1903 12.3089 74.5348 11.9844 75.0941 11.9844C75.6937 11.9844 76.0336 12.3694 76.0336 13.0073V13.4418L74.7496 13.5353C73.6354 13.6178 73 14.2337 73 15.2401V15.2511C73 16.2905 73.6308 17 74.5706 17ZM73.9756 15.2236V15.2127C73.9756 14.7232 74.2977 14.4097 74.8793 14.3657L76.0336 14.2777V14.7287C76.0336 15.4821 75.5147 16.0486 74.8346 16.0486C74.3155 16.0486 73.9756 15.7296 73.9756 15.2236Z" fill="white"/>
<path d="M82.6 11.981V11H79V17H80.1157V11.981H82.6Z" fill="white"/>
<path d="M85 18H86.0909V15.4058H86.1161C86.4293 16.0063 87.0405 16.3804 87.793 16.3804C89.1263 16.3804 90 15.3417 90 13.6927V13.6877C90 12.0337 89.1312 11 87.7778 11C87.0202 11 86.4345 11.3741 86.1161 11.9894H86.0909V11.0985H85V18ZM87.495 15.4648C86.6717 15.4648 86.086 14.7658 86.086 13.6927V13.6877C86.086 12.6097 86.6666 11.9107 87.495 11.9107C88.3535 11.9107 88.8887 12.5851 88.8887 13.6877V13.6927C88.8887 14.7855 88.3535 15.4648 87.495 15.4648Z" fill="white"/>
<path d="M93.066 18C94.097 18 94.6477 17.5809 95.0381 16.4932L97 11H95.8587L94.5323 15.2708H94.4974L93.171 11H92L93.917 16.2537L93.8267 16.5032C93.6467 17.0121 93.3664 17.1468 92.8559 17.1468C92.7108 17.1468 92.5855 17.1269 92.5006 17.1069V17.9501C92.6307 17.975 92.8559 18 93.066 18Z" fill="white"/>
<path d="M100.019 17C101.21 17 102 16.2809 102 15.205V15.194C102 14.5188 101.649 14.0576 101.007 13.9039V13.86C101.529 13.7173 101.866 13.2287 101.866 12.6084V12.5975C101.866 11.6093 101.182 11 100.065 11C98.9701 11 98.2542 11.6148 98.1386 12.6414L98.1342 12.6853H99.0854L99.0902 12.6468C99.1641 12.2077 99.5288 11.9387 100.051 11.9387C100.577 11.9387 100.892 12.2296 100.892 12.7237V12.7347C100.892 13.2507 100.591 13.5142 100.005 13.5142H99.3071V14.376H100.009C100.684 14.376 101.007 14.6395 101.007 15.194V15.205C101.007 15.732 100.628 16.0558 100.014 16.0558C99.4644 16.0558 99.1041 15.8033 98.9932 15.3367L98.9793 15.2818H98L98.0047 15.3312C98.1017 16.3523 98.8824 17 100.019 17Z" fill="white"/>
<path d="M104 17H105.111L107.631 12.7852H107.678V17H108.8V11H107.689L105.169 15.1977H105.116V11H104V17Z" fill="white"/>
<path d="M115.8 11H111V11.981H112.805V17H113.995V11.981H115.8V11Z" fill="white"/>
<path d="M120.581 17C121.908 17 122.756 16.1656 122.927 15.2489L122.943 15.1885H121.871L121.856 15.2324C121.715 15.666 121.273 16.0284 120.607 16.0284C119.712 16.0284 119.145 15.3916 119.124 14.2992H123V13.8984C123 12.1638 122.058 11 120.524 11C118.989 11 118 12.2077 118 14.0137V14.0192C118 15.8417 118.973 17 120.581 17ZM120.529 11.9716C121.262 11.9716 121.798 12.4602 121.887 13.4593H119.139C119.244 12.4931 119.8 11.9716 120.529 11.9716Z" fill="white"/>
<path d="M129 17H131.721C133.002 17 133.8 16.327 133.8 15.2775V15.2662C133.8 14.5304 133.294 13.9943 132.53 13.8916V13.846C133.097 13.7376 133.536 13.173 133.536 12.5513V12.5399C133.536 11.5875 132.839 11 131.687 11H129V17ZM130.203 13.4753V11.9125H131.434C132.018 11.9125 132.333 12.1806 132.333 12.6768V12.6882C132.333 13.2186 131.996 13.4753 131.31 13.4753H130.203ZM130.203 16.0875V14.3707H131.355C132.153 14.3707 132.552 14.6388 132.552 15.2148V15.2262C132.552 15.7966 132.181 16.0875 131.496 16.0875H130.203Z" fill="white"/>
</g>
<defs>
<clipPath id="clip0_4_49">
<rect width="158" height="47" fill="white"/>
</clipPath>
</defs>
</svg>
