<svg width="158" height="47" viewBox="0 0 158 47" fill="none" xmlns="http://www.w3.org/2000/svg">
<g clip-path="url(#clip0_1_43)">
<path d="M0 6.26667C0 2.80568 2.79601 0 6.24506 0H151.755C155.204 0 158 2.80568 158 6.26667V40.7333C158 44.1944 155.204 47 151.755 47H6.24506C2.79601 47 0 44.1944 0 40.7333V6.26667Z" fill="#202020"/>
<path fill-rule="evenodd" clip-rule="evenodd" d="M0 40.7333V6.26667C0 2.80568 2.79601 0 6.24506 0H151.755C155.204 0 158 2.80568 158 6.26667V40.7333C158 44.1944 155.204 47 151.755 47H6.24506C2.79601 47 0 44.1944 0 40.7333ZM0.936759 40.7333V6.26667C0.936759 3.32484 3.31338 0.94 6.24506 0.94H151.755C154.687 0.94 157.063 3.32484 157.063 6.26667V40.7333C157.063 43.6752 154.687 46.06 151.755 46.06H6.24506C3.31338 46.06 0.936759 43.6752 0.936759 40.7333Z" fill="white" fill-opacity="0.3"/>
<path d="M80.0877 25.8148C77.2852 25.8148 74.9698 28.0264 74.9698 31.0587C74.9698 34.0664 77.2609 36.3027 80.0877 36.3027C82.9145 36.3027 85.2054 34.0909 85.2054 31.0587C85.2054 28.0264 82.9145 25.8148 80.0877 25.8148ZM80.0877 34.2161C78.5519 34.2161 77.2124 32.8983 77.2124 31.0353C77.2124 29.1465 78.5528 27.8547 80.0877 27.8547C81.6223 27.8547 82.9628 29.1465 82.9628 31.0353C82.9628 32.8983 81.6223 34.2161 80.0877 34.2161ZM68.9502 25.8148C66.1234 25.8148 63.8322 28.0264 63.8322 31.0587C63.8322 34.0664 66.1234 36.3027 68.9502 36.3027C71.777 36.3027 74.0682 34.0909 74.0682 31.0587C74.0682 28.0264 71.7773 25.8148 68.9502 25.8148ZM68.9502 34.2161C67.4144 34.2161 66.0752 32.8983 66.0752 31.0353C66.0752 29.1465 67.4156 27.8547 68.9502 27.8547C70.4861 27.8547 71.8255 29.1465 71.8255 31.0353C71.8255 32.8983 70.5088 34.2161 68.9502 34.2161ZM55.7169 27.4304V29.642H60.8831C60.7362 30.8846 60.3233 31.8042 59.7136 32.426C58.9583 33.1962 57.7884 34.0415 55.7169 34.0415C52.5238 34.0415 50.0634 31.4073 50.0634 28.1513C50.0634 24.8953 52.5251 22.2113 55.7169 22.2113C57.4467 22.2113 58.6903 22.9074 59.6165 23.8024L61.1511 22.2361C59.8589 20.969 58.1292 20 55.7169 20C51.354 20 47.6981 23.6528 47.6981 28.1018C47.6981 32.5511 51.354 36.204 55.7169 36.204C58.0806 36.204 59.8359 35.4089 61.2491 33.917C62.687 32.4508 63.1255 30.3874 63.1255 28.7225C63.1255 28.2008 63.0772 27.7284 63.0035 27.3306L55.7169 27.4304ZM109.868 29.1451C109.454 27.9769 108.139 25.8148 105.505 25.8148C102.873 25.8148 100.704 27.9276 100.704 31.0587C100.704 33.9909 102.873 36.3027 105.749 36.3027C108.089 36.3027 109.43 34.8366 109.989 33.9909L108.26 32.798C107.674 33.6685 106.895 34.2393 105.749 34.2393C104.604 34.2393 103.8 33.7176 103.287 32.6486L110.087 29.7411L109.868 29.1451ZM102.947 30.9104C102.898 28.8967 104.483 27.8533 105.603 27.8533C106.505 27.8533 107.236 28.3007 107.503 28.9721L102.947 30.9104ZM97.4145 35.9552H99.6571V20.5957H97.4145V35.9552ZM93.7598 26.9831H93.687C93.1754 26.3613 92.2252 25.8148 91.0059 25.8148C88.4467 25.8148 86.1316 28.1265 86.1316 31.0587C86.1316 33.9909 88.471 36.2782 91.0059 36.2782C92.224 36.2782 93.1744 35.7313 93.687 35.085H93.7598V35.8304C93.7598 37.8444 92.7113 38.9121 91.0301 38.9121C89.6651 38.9121 88.8118 37.8934 88.471 37.0481L86.5222 37.8934C87.0817 39.2854 88.5693 41 91.0301 41C93.6618 41 95.8798 39.4093 95.8798 35.5574V26.1376H93.7598V26.9831ZM91.201 34.2161C89.6651 34.2161 88.3742 32.8983 88.3742 31.0601C88.3742 29.2219 89.6664 27.8792 91.201 27.8792C92.7126 27.8792 93.9307 29.2219 93.9307 31.0601C93.9297 32.8735 92.7113 34.2161 91.201 34.2161ZM120.323 20.596H114.962V35.9552H117.204V30.1389H120.323C122.81 30.1389 125.246 28.2994 125.246 25.3674C125.246 22.4353 122.81 20.596 120.323 20.596ZM120.396 28.003H117.227V22.733H120.396C122.053 22.733 123.028 24.1497 123.028 25.3672C123.005 26.5602 122.054 28.003 120.396 28.003ZM134.191 25.79C132.582 25.79 130.901 26.5109 130.218 28.1513L132.193 28.9968C132.632 28.1513 133.411 27.8781 134.24 27.8781C135.41 27.8781 136.58 28.5987 136.604 29.8657V30.0154C136.19 29.7669 135.338 29.4183 134.265 29.4183C132.12 29.4183 129.95 30.6361 129.95 32.8735C129.95 34.9366 131.706 36.2533 133.655 36.2533C135.166 36.2533 135.994 35.5574 136.506 34.7375H136.579V35.9307H138.747V30.0399C138.723 27.3314 136.75 25.79 134.191 25.79ZM133.923 34.1912C133.192 34.1912 132.168 33.8179 132.168 32.8993C132.168 31.7064 133.434 31.259 134.531 31.259C135.506 31.259 135.969 31.4827 136.579 31.7806C136.408 33.1974 135.214 34.1912 133.923 34.1912ZM146.571 26.1389L144.012 32.7744H143.939L141.283 26.1387H138.871L142.867 35.4335L140.601 40.628H142.94L149.057 26.1387L146.571 26.1389ZM126.49 35.9552H128.732V20.5957H126.49V35.9552Z" fill="white"/>
<path d="M52.8086 12.2097V14H52.0341V12.9493H48.4727V14H47.6981V12.2097H48.2772C48.4703 11.9516 48.6128 11.5806 48.7043 11.0968C48.7961 10.6083 48.8418 10.0783 48.8418 9.50691V8H52.2368V12.2097H52.8086ZM51.426 12.2097V8.73963H49.6453V9.63825C49.6453 10.1544 49.6019 10.6336 49.515 11.076C49.4331 11.5184 49.3077 11.8963 49.1386 12.2097H51.426Z" fill="white"/>
<path d="M56.6415 14C56.0842 14 55.578 13.869 55.1228 13.607C54.6674 13.3396 54.3084 12.9759 54.0458 12.516C53.7887 12.0562 53.6604 11.5508 53.6604 11C53.6604 10.4492 53.7887 9.94653 54.0458 9.49198C54.3084 9.0321 54.6674 8.66844 55.1228 8.40107C55.578 8.1337 56.0842 8 56.6415 8C57.1985 8 57.7022 8.1337 58.1522 8.40107C58.6073 8.66844 58.9663 9.0321 59.2286 9.49198C59.4912 9.94653 59.6226 10.4492 59.6226 11C59.6226 11.5508 59.4912 12.0562 59.2286 12.516C58.9715 12.9759 58.6153 13.3396 58.1602 13.607C57.7048 13.869 57.1985 14 56.6415 14ZM56.6415 13.1417C57.0218 13.1417 57.3699 13.0508 57.6861 12.869C58.0021 12.6872 58.2512 12.4358 58.4334 12.115C58.6153 11.7888 58.7063 11.4171 58.7063 11C58.7063 10.5829 58.6153 10.2139 58.4334 9.89305C58.2512 9.56684 58.0021 9.31284 57.6861 9.13102C57.3699 8.94919 57.0218 8.85829 56.6415 8.85829C56.261 8.85829 55.9129 8.94919 55.5966 9.13102C55.2807 9.31284 55.029 9.56684 54.8413 9.89305C54.6593 10.2139 54.5681 10.5829 54.5681 11C54.5681 11.4171 54.6593 11.7888 54.8413 12.115C55.029 12.4358 55.2807 12.6872 55.5966 12.869C55.9129 13.0508 56.261 13.1417 56.6415 13.1417Z" fill="white"/>
<path d="M63.5167 14C62.9788 14 62.4878 13.869 62.0433 13.607C61.5985 13.3449 61.2495 12.9839 60.9963 12.5241C60.7429 12.0642 60.6164 11.5561 60.6164 11C60.6164 10.4439 60.7429 9.93582 60.9963 9.47594C61.2495 9.01605 61.5985 8.65509 62.0433 8.39305C62.4878 8.13101 62.9788 8 63.5167 8C63.9355 8 64.3155 8.08021 64.6567 8.24064C65.0029 8.40107 65.3081 8.63369 65.5718 8.9385L64.9514 9.55615C64.76 9.32087 64.5481 9.14706 64.3155 9.03476C64.0828 8.9171 63.8164 8.85829 63.5167 8.85829C63.1445 8.85829 62.8032 8.94652 62.4931 9.12299C62.1878 9.29947 61.9449 9.55079 61.7641 9.87701C61.583 10.1979 61.4927 10.5722 61.4927 11C61.4927 11.4278 61.583 11.8048 61.7641 12.131C61.9449 12.4519 62.1878 12.7005 62.4931 12.877C62.8032 13.0535 63.1445 13.1417 63.5167 13.1417C64.1371 13.1417 64.6644 12.8743 65.0987 12.3396L65.7269 12.9652C65.4579 13.2915 65.1347 13.5454 64.7575 13.7273C64.38 13.9091 63.9665 14 63.5167 14Z" fill="white"/>
<path d="M68.1313 8.89665H66.5786V8H70.5535V8.89665H69.0008V14H68.1313V8.89665Z" fill="white"/>
<path d="M72.7578 14C72.5503 14 72.3738 13.9645 72.2281 13.8934V13C72.4131 13.0984 72.5812 13.1475 72.7326 13.1475C72.8839 13.1475 73.0043 13.1202 73.0941 13.0656C73.1838 13.0055 73.2649 12.8962 73.3379 12.7377L73.548 12.3115L71.5472 8H72.598L74.002 11.2541H74.0525L75.4648 8H76.5157L74.2122 12.9344C74.044 13.3006 73.8396 13.571 73.5985 13.7459C73.3631 13.9153 73.0829 14 72.7578 14Z" fill="white"/>
<path d="M77.5094 8H82.478V14H81.4339V8.89665H78.5535V14H77.5094V8Z" fill="white"/>
<path d="M83.4717 8H84.4744V10.4888H87.4465V8H88.4403V14H87.4465V11.3771H84.4744V14H83.4717V8Z" fill="white"/>
<path d="M92.4151 14C91.8581 14 91.3518 13.869 90.8964 13.607C90.4413 13.3396 90.0823 12.9759 89.8197 12.516C89.5625 12.0562 89.434 11.5508 89.434 11C89.434 10.4492 89.5625 9.94653 89.8197 9.49198C90.0823 9.0321 90.4413 8.66844 90.8964 8.40107C91.3518 8.1337 91.8581 8 92.4151 8C92.9724 8 93.4758 8.1337 93.9258 8.40107C94.3812 8.66844 94.7402 9.0321 95.0025 9.49198C95.2651 9.94653 95.3962 10.4492 95.3962 11C95.3962 11.5508 95.2651 12.0562 95.0025 12.516C94.7454 12.9759 94.3892 13.3396 93.9338 13.607C93.4786 13.869 92.9724 14 92.4151 14ZM92.4151 13.1417C92.7956 13.1417 93.1437 13.0508 93.4597 12.869C93.776 12.6872 94.0251 12.4358 94.207 12.115C94.3892 11.7888 94.4802 11.4171 94.4802 11C94.4802 10.5829 94.3892 10.2139 94.207 9.89305C94.0251 9.56684 93.776 9.31284 93.4597 9.13102C93.1437 8.94919 92.7956 8.85829 92.4151 8.85829C92.0349 8.85829 91.6868 8.94919 91.3705 9.13102C91.0545 9.31284 90.8029 9.56684 90.6152 9.89305C90.4332 10.2139 90.342 10.5829 90.342 11C90.342 11.4171 90.4332 11.7888 90.6152 12.115C90.8029 12.4358 91.0545 12.6872 91.3705 12.869C91.6868 13.0508 92.0349 13.1417 92.4151 13.1417Z" fill="white"/>
<path d="M100.365 8H102.478C102.776 8 103.051 8.06982 103.303 8.2095C103.559 8.34917 103.764 8.54191 103.915 8.78771C104.067 9.03351 104.143 9.30448 104.143 9.60056C104.143 9.89664 104.073 10.1536 103.931 10.3715C103.795 10.5894 103.614 10.7542 103.389 10.8659V10.9162C103.672 11.0224 103.9 11.1983 104.073 11.4441C104.251 11.6899 104.34 11.9777 104.34 12.3073C104.34 12.6369 104.259 12.9302 104.096 13.1872C103.939 13.4441 103.724 13.6453 103.452 13.7905C103.185 13.9302 102.892 14 102.572 14H100.365V8ZM102.439 10.514C102.69 10.514 102.892 10.4302 103.043 10.2626C103.201 10.095 103.279 9.90223 103.279 9.68436C103.279 9.46648 103.203 9.27653 103.051 9.11452C102.905 8.94693 102.711 8.86313 102.47 8.86313H101.245V10.514H102.439ZM102.572 13.1285C102.839 13.1285 103.051 13.0391 103.208 12.8603C103.371 12.6816 103.452 12.4749 103.452 12.2402C103.452 12 103.368 11.7933 103.201 11.6201C103.038 11.4414 102.818 11.352 102.541 11.352H101.245V13.1285H102.572Z" fill="white"/>
<path d="M33.8363 28C37.6567 25.9152 40.553 24.3268 40.8027 24.2034C41.6011 23.7812 42.4261 22.6642 40.8027 21.7966C40.2785 21.5238 37.4568 19.9846 33.8363 18L28.8176 23.0369L33.836 28H33.8363Z" fill="#FFD900"/>
<path d="M28.7987 23L12.9182 38.9878C13.2908 39.0371 13.7116 38.9383 14.208 38.6657C15.2497 38.0964 26.2918 32.0725 33.7862 27.9584L28.7987 23Z" fill="#F43249"/>
<path d="M28.805 23L33.7862 17.9748C33.7862 17.9748 15.3466 7.87399 14.2307 7.27797C13.8108 7.02735 13.3397 6.95328 12.9182 7.02735L28.805 22.9997V23Z" fill="#00EE76"/>
<path d="M28.8176 22.9507L13.1015 7C12.4636 7.14936 11.9245 7.72034 11.9245 8.88762V37.0873C11.9245 38.1562 12.3417 38.9261 13.1256 39L28.8173 22.9504L28.8176 22.9507Z" fill="#00D3FF"/>
</g>
<defs>
<clipPath id="clip0_1_43">
<rect width="158" height="47" fill="white"/>
</clipPath>
</defs>
</svg>
