<svg width="152" height="56" viewBox="0 0 152 56" fill="none" xmlns="http://www.w3.org/2000/svg">
<path fill-rule="evenodd" clip-rule="evenodd" d="M86.2774 15.7238C86.2774 16.2421 86.1728 16.7263 85.9635 17.1765C85.7681 17.6266 85.4962 18.0221 85.1474 18.3632C84.7987 18.6906 84.3872 18.9566 83.9129 19.1611C83.4526 19.3521 82.9574 19.4476 82.4272 19.4476C81.8972 19.4476 81.395 19.3521 80.9207 19.1611C80.4604 18.9566 80.0559 18.6906 79.7072 18.3632C79.3724 18.0221 79.1004 17.6266 78.8911 17.1765C78.6959 16.7263 78.5982 16.2421 78.5982 15.7238C78.5982 15.2191 78.6959 14.7417 78.8911 14.2916C79.1004 13.8278 79.3724 13.4322 79.7072 13.1049C80.0559 12.7639 80.4604 12.4979 80.9207 12.3069C81.395 12.1023 81.8972 12 82.4272 12C82.9574 12 83.4526 12.1023 83.9129 12.3069C84.3872 12.4979 84.7987 12.7639 85.1474 13.1049C85.4962 13.4322 85.7681 13.8278 85.9635 14.2916C86.1728 14.7417 86.2774 15.2191 86.2774 15.7238ZM85.2939 43.5907H79.5398V21.6777H85.2939V43.5907ZM77.0079 43.5907H56V14.2506H62.0053V37.7187H77.0079V43.5907ZM89.667 43.5907H95.3794V31.0691C95.3794 30.4961 95.491 29.9573 95.7141 29.4527C95.9373 28.9344 96.2441 28.4842 96.6347 28.1022C97.0253 27.7203 97.4858 27.4203 98.0157 27.2021C98.5459 26.9838 99.1108 26.8747 99.7105 26.8747C100.297 26.8747 100.848 26.9838 101.364 27.2021C101.88 27.4203 102.333 27.7203 102.724 28.1022C103.114 28.4842 103.421 28.9344 103.644 29.4527C103.868 29.9573 103.979 30.4961 103.979 31.0691V43.5907H109.691V31.0691C109.691 29.7187 109.426 28.4502 108.896 27.2634C108.38 26.0631 107.669 25.0196 106.762 24.1331C105.855 23.2327 104.795 22.5302 103.582 22.0256C102.368 21.5072 101.078 21.2481 99.7105 21.2481C98.4413 21.2481 97.2207 21.4732 96.0489 21.9233C94.8911 22.3598 93.8518 22.9873 92.9312 23.8057L91.048 21.6777H89.667V43.5907ZM124.715 43.5907C123.334 43.5907 122.037 43.3385 120.823 42.8338C119.609 42.3154 118.542 41.6129 117.622 40.7264C116.715 39.826 115.997 38.7826 115.466 37.5958C114.95 36.4093 114.692 35.1406 114.692 33.7903V27.2838H111.909V21.7186H114.692V12.9616H120.384V21.7186H129.046V27.2838H120.384V33.7903C120.384 34.3767 120.495 34.9293 120.718 35.4475C120.942 35.9522 121.249 36.3955 121.639 36.7774C122.03 37.1593 122.49 37.4663 123.02 37.6981C123.55 37.9164 124.115 38.0255 124.715 38.0255H129.046V43.5907H124.715ZM147.25 42.1995C147.78 41.8312 148.276 41.4424 148.736 41.0333L150.619 43.5907H152V21.6777H146.288V33.7903C146.288 34.3767 146.176 34.9497 145.953 35.5089C145.73 36.0545 145.423 36.5456 145.032 36.982C144.642 37.4185 144.181 37.7733 143.651 38.0461C143.135 38.3051 142.584 38.4348 141.998 38.4348C141.398 38.4348 140.834 38.3325 140.304 38.1278C139.787 37.9232 139.334 37.6232 138.943 37.2277C138.553 36.832 138.239 36.3479 138.002 35.7749C137.779 35.1883 137.667 34.5268 137.667 33.7903V21.6777H131.976V33.7903C131.976 35.3588 132.234 36.7774 132.75 38.0461C133.28 39.301 133.998 40.3716 134.905 41.2584C135.826 42.1313 136.893 42.8065 138.106 43.2839C139.32 43.7614 140.617 44 141.998 44C142.626 44 143.24 43.9181 143.84 43.7544C144.453 43.6045 145.046 43.3998 145.618 43.1406C146.19 42.8678 146.734 42.5541 147.25 42.1995Z" fill="#202020"/>
<path fill-rule="evenodd" clip-rule="evenodd" d="M33.4285 0H41.1428L28.5713 24.396H37.7142L54 56H46.2856L20.4811 31.604H0L33.4285 0Z" fill="url(#paint0_linear_1_138)"/>
<path d="M41.1428 0H33.4285L0 31.604H20.4811L46.2856 56H54L37.7142 24.396H28.5713L41.1428 0Z" fill="url(#paint1_linear_1_138)"/>
<defs>
<linearGradient id="paint0_linear_1_138" x1="70.9661" y1="60.6665" x2="20.5015" y2="14.1589" gradientUnits="userSpaceOnUse">
<stop stop-color="#0FDA48"/>
<stop stop-color="#70FF00"/>
<stop offset="1" stop-color="#0FDACE"/>
</linearGradient>
<linearGradient id="paint1_linear_1_138" x1="70.9661" y1="60.6665" x2="20.5015" y2="14.1589" gradientUnits="userSpaceOnUse">
<stop stop-color="#0FDA48"/>
<stop stop-color="#70FF00"/>
<stop offset="1" stop-color="#0FDACE"/>
</linearGradient>
</defs>
</svg>
