<svg width="116" height="43" viewBox="0 0 116 43" fill="none" xmlns="http://www.w3.org/2000/svg">
<path fill-rule="evenodd" clip-rule="evenodd" d="M66.0234 11.9092C66.0234 12.3141 65.9439 12.6925 65.7847 13.0441C65.6362 13.3958 65.4294 13.7048 65.1642 13.9713C64.899 14.227 64.5861 14.4348 64.2254 14.5946C63.8754 14.7438 63.4988 14.8185 63.0957 14.8185C62.6927 14.8185 62.3108 14.7438 61.9501 14.5946C61.6001 14.4348 61.2925 14.227 61.0273 13.9713C60.7728 13.7048 60.5659 13.3958 60.4068 13.0441C60.2583 12.6925 60.184 12.3141 60.184 11.9092C60.184 11.5149 60.2583 11.1419 60.4068 10.7903C60.5659 10.428 60.7728 10.1189 61.0273 9.86318C61.2925 9.59676 61.6001 9.38896 61.9501 9.23977C62.3108 9.07993 62.6927 9 63.0957 9C63.4988 9 63.8754 9.07993 64.2254 9.23977C64.5861 9.38896 64.899 9.59676 65.1642 9.86318C65.4294 10.1189 65.6362 10.428 65.7847 10.7903C65.9439 11.1419 66.0234 11.5149 66.0234 11.9092ZM65.2756 33.6802H60.9001V16.5607H65.2756V33.6802ZM58.9747 33.6802H43V10.7583H47.5665V29.0927H58.9747V33.6802ZM68.6009 33.6802H72.9447V23.8977C72.9447 23.4501 73.0296 23.0291 73.1993 22.6349C73.369 22.23 73.6023 21.8783 73.8993 21.5799C74.1963 21.2815 74.5465 21.0471 74.9495 20.8766C75.3526 20.7061 75.7822 20.6209 76.2382 20.6209C76.6838 20.6209 77.1028 20.7061 77.4952 20.8766C77.8877 21.0471 78.2325 21.2815 78.5295 21.5799C78.8266 21.8783 79.0598 22.23 79.2296 22.6349C79.3993 23.0291 79.4841 23.4501 79.4841 23.8977V33.6802H83.8278V23.8977C83.8278 22.8427 83.6264 21.8517 83.2232 20.9246C82.8308 19.9868 82.2898 19.1716 81.6003 18.479C80.9109 17.7756 80.1047 17.2267 79.1818 16.8325C78.259 16.4275 77.2778 16.2251 76.2382 16.2251C75.2731 16.2251 74.3449 16.4009 73.4539 16.7526C72.5734 17.0936 71.7831 17.5838 71.0831 18.2232L69.6511 16.5607H68.6009V33.6802ZM95.252 33.6802C94.2019 33.6802 93.2154 33.4832 92.2925 33.0889C91.3697 32.6839 90.5582 32.1351 89.8582 31.4425C89.1686 30.7391 88.6225 29.9239 88.2193 28.9967C87.8269 28.0697 87.6306 27.0786 87.6306 26.0237V20.9405H85.5144V16.5927H87.6306V9.75127H91.9584V16.5927H98.5457V20.9405H91.9584V26.0237C91.9584 26.4818 92.0432 26.9135 92.213 27.3184C92.3827 27.7127 92.6161 28.059 92.9131 28.3573C93.2101 28.6557 93.5601 28.8955 93.9633 29.0767C94.3663 29.2472 94.7959 29.3324 95.252 29.3324H98.5457V33.6802H95.252ZM112.388 32.5934C112.791 32.3056 113.168 32.0019 113.518 31.6823L114.95 33.6802H116V16.5607H111.656V26.0237C111.656 26.4818 111.571 26.9295 111.402 27.3663C111.232 27.7926 110.999 28.1762 110.702 28.5172C110.405 28.8582 110.055 29.1354 109.652 29.3485C109.259 29.5509 108.84 29.6522 108.395 29.6522C107.938 29.6522 107.509 29.5722 107.106 29.4124C106.713 29.2525 106.369 29.0181 106.072 28.7091C105.775 28.4 105.536 28.0218 105.356 27.5742C105.186 27.1159 105.101 26.5991 105.101 26.0237V16.5607H100.773V26.0237C100.773 27.2491 100.969 28.3574 101.362 29.3485C101.765 30.3289 102.311 31.1653 103.001 31.8581C103.701 32.5401 104.512 33.0675 105.435 33.4406C106.358 33.8136 107.344 34 108.395 34C108.872 34 109.339 33.936 109.795 33.8081C110.261 33.691 110.712 33.5311 111.147 33.3286C111.582 33.1155 111.996 32.8704 112.388 32.5934Z" fill="#202020"/>
<path fill-rule="evenodd" clip-rule="evenodd" d="M25.3809 0H31.238L21.693 18.7326H28.6348L41 43H35.1428L15.5505 24.2673H0L25.3809 0Z" fill="url(#paint0_linear_1_230)"/>
<path d="M31.238 0H25.3809L0 24.2673H15.5505L35.1428 43H41L28.6348 18.7326H21.693L31.238 0Z" fill="url(#paint1_linear_1_230)"/>
<defs>
<linearGradient id="paint0_linear_1_230" x1="53.8817" y1="46.5832" x2="15.1701" y2="11.3065" gradientUnits="userSpaceOnUse">
<stop stop-color="#0FDA48"/>
<stop stop-color="#70FF00"/>
<stop offset="1" stop-color="#0FDACE"/>
</linearGradient>
<linearGradient id="paint1_linear_1_230" x1="53.8817" y1="46.5832" x2="15.1701" y2="11.3065" gradientUnits="userSpaceOnUse">
<stop stop-color="#0FDA48"/>
<stop stop-color="#70FF00"/>
<stop offset="1" stop-color="#0FDACE"/>
</linearGradient>
</defs>
</svg>
