<svg width="62" height="62" viewBox="0 0 62 62" fill="none" xmlns="http://www.w3.org/2000/svg">
<path d="M1.47619 31H0H1.47619ZM12.5476 31H11.0714H12.5476ZM31 49.4524V50.9286V49.4524ZM49.4524 31H50.9286H49.4524ZM31 0C22.7783 0 14.8933 3.26607 9.07969 9.07969L11.1674 11.1674C16.4273 5.90739 23.5613 2.95238 31 2.95238V0ZM9.07969 9.07969C3.26607 14.8933 0 22.7783 0 31H2.95238C2.95238 23.5613 5.90739 16.4273 11.1674 11.1674L9.07969 9.07969ZM0 31C0 39.2218 3.26607 47.1067 9.07969 52.9202L11.1674 50.8326C5.90739 45.5727 2.95238 38.4388 2.95238 31H0ZM9.07969 52.9202C14.8933 58.7341 22.7783 62 31 62V59.0476C23.5613 59.0476 16.4273 56.0926 11.1674 50.8326L9.07969 52.9202ZM31 62C39.2218 62 47.1067 58.7341 52.9202 52.9202L50.8326 50.8326C45.5727 56.0926 38.4388 59.0476 31 59.0476V62ZM52.9202 52.9202C58.7341 47.1067 62 39.2218 62 31H59.0476C59.0476 38.4388 56.0926 45.5727 50.8326 50.8326L52.9202 52.9202ZM62 31C62 22.7783 58.7341 14.8933 52.9202 9.07969L50.8326 11.1674C56.0926 16.4273 59.0476 23.5613 59.0476 31H62ZM52.9202 9.07969C47.1067 3.26607 39.2218 0 31 0V2.95238C38.4388 2.95238 45.5727 5.90739 50.8326 11.1674L52.9202 9.07969ZM31 11.0714C25.7146 11.0714 20.6457 13.171 16.9084 16.9084L18.996 18.996C22.1797 15.8124 26.4977 14.0238 31 14.0238V11.0714ZM16.9084 16.9084C13.171 20.6457 11.0714 25.7146 11.0714 31H14.0238C14.0238 26.4977 15.8124 22.1797 18.996 18.996L16.9084 16.9084ZM11.0714 31C11.0714 36.2854 13.171 41.3543 16.9084 45.0917L18.996 43.0041C15.8124 39.8202 14.0238 35.5024 14.0238 31H11.0714ZM16.9084 45.0917C20.6457 48.8288 25.7146 50.9286 31 50.9286V47.9762C26.4976 47.9762 22.1797 46.1876 18.996 43.0041L16.9084 45.0917ZM31 50.9286C36.2854 50.9286 41.3543 48.8288 45.0917 45.0917L43.0041 43.0041C39.8202 46.1876 35.5024 47.9762 31 47.9762V50.9286ZM45.0917 45.0917C48.8288 41.3543 50.9286 36.2854 50.9286 31H47.9762C47.9762 35.5024 46.1876 39.8202 43.0041 43.0041L45.0917 45.0917ZM50.9286 31C50.9286 25.7146 48.8288 20.6457 45.0917 16.9084L43.0041 18.996C46.1876 22.1797 47.9762 26.4976 47.9762 31H50.9286ZM45.0917 16.9084C41.3543 13.171 36.2854 11.0714 31 11.0714V14.0238C35.5024 14.0238 39.8202 15.8124 43.0041 18.996L45.0917 16.9084ZM19.0064 15.0854C12.5963 20.2134 8.96694 26.4037 8.30962 33.6341C7.65724 40.8108 9.95147 48.807 14.9564 57.5658L17.5198 56.1008C12.6835 47.6373 10.6721 40.2569 11.2499 33.9016C11.8227 27.6002 14.9592 22.104 20.8507 17.3908L19.0064 15.0854ZM42.9935 46.9145C49.3975 41.7915 53.0319 35.6698 53.6902 28.4995C54.3433 21.3853 52.0461 13.4536 47.0435 4.69916L44.4803 6.16395C49.3189 14.6317 51.3271 21.9445 50.7502 28.2296C50.1784 34.4587 47.0471 39.8911 41.1494 44.6093L42.9935 46.9145Z" fill="#202020"/>
</svg>
