<svg width="122" height="68" viewBox="0 0 122 68" fill="none" xmlns="http://www.w3.org/2000/svg">
<path fill-rule="evenodd" clip-rule="evenodd" d="M98.4637 3.99373C98.4637 3.64466 98.2676 3.32553 97.9572 3.16941L91.8498 0.097302C91.5918 -0.0324305 91.2884 -0.0324305 91.0305 0.097302L60.9037 15.2518L30.7769 0.0972994C30.519 -0.0324331 30.2154 -0.0324331 29.9575 0.0972994L23.8502 3.16941C23.5398 3.32553 23.3438 3.64466 23.3438 3.99373V34.7149C23.3438 35.064 23.5398 35.3831 23.8502 35.5392L29.9575 38.6113C30.2154 38.7411 30.519 38.7411 30.7769 38.6113L54.7963 26.529L60.4941 29.395C60.752 29.5247 61.0554 29.5247 61.3134 29.395L67.0112 26.529L91.0305 38.6113C91.2884 38.7411 91.5918 38.7411 91.8498 38.6113L97.9572 35.5392C98.2676 35.3831 98.4637 35.064 98.4637 34.7149V3.99373ZM48.6892 23.4568L52.7479 25.4986L30.3672 36.7566L26.3083 34.7149L48.6892 23.4568ZM46.6405 22.4264L25.176 33.2237V4.56334L29.4511 2.41287V25.4986C29.4511 25.818 29.6155 26.1146 29.8856 26.2825C30.1556 26.4505 30.4929 26.4657 30.7769 26.3229L42.5818 20.3847L46.6405 22.4264ZM31.2833 24.0073V2.41287L60.4941 17.1065C60.752 17.2363 61.0554 17.2363 61.3134 17.1065L90.524 2.41287V24.0073L86.2492 21.8568V16.3008C86.2492 16.2933 86.2492 16.2858 86.2492 16.2783C86.2492 16.273 86.2492 16.2676 86.2492 16.2622V10.138C86.2492 9.81857 86.0846 9.52192 85.8146 9.354C85.5445 9.18607 85.2074 9.17081 84.9234 9.31363L60.9037 21.396L36.8841 9.31363C36.6001 9.17077 36.263 9.18607 35.9929 9.354C35.7228 9.52192 35.5584 9.81857 35.5584 10.138V16.2622C35.5581 16.2751 35.5581 16.2879 35.5584 16.3008V21.8568L31.2833 24.0073ZM92.3562 25.4986V2.41287L96.6315 4.56334V33.2237L75.1666 22.4264L79.2256 20.3847L91.0305 26.3229C91.3144 26.4657 91.6519 26.4505 91.922 26.2825C92.1921 26.1146 92.3562 25.818 92.3562 25.4986ZM73.1182 23.4568L95.4992 34.7149L91.4401 36.7566L69.0596 25.4986L73.1182 23.4568ZM84.417 15.7126L78.816 18.53L60.9037 27.5402L42.9922 18.5303L42.9915 18.53L37.3905 15.7126V11.6292L60.4941 23.2508C60.752 23.3805 61.0554 23.3805 61.3134 23.2508L84.417 11.6292V15.7126ZM40.5334 19.3543L37.3905 17.7735V20.9352L40.5334 19.3543ZM81.274 19.3543L84.417 17.7735V20.9352L81.274 19.3543ZM0 63.2241V47.1375H1.68645L7.48754 61.1504H7.62807L13.4291 47.1375H15.1156V63.2241H13.7414V50.2401H13.6165L8.22144 63.2241H6.89413L1.49907 50.2401H1.37414V63.2241H0ZM26.1439 61.3152C25.6442 62.3836 24.4262 63.4991 22.4274 63.4991C20.2491 63.4991 18.4846 62.1793 18.4846 59.8542C18.4846 57.4665 20.3818 56.7045 23.0911 56.3668C23.3191 56.3384 23.5357 56.3129 23.7405 56.289C25.3455 56.1006 26.2298 55.9966 26.2298 55.1885V54.9058C26.2298 53.2564 25.2226 52.2507 23.4034 52.2507C21.6701 52.2507 20.5848 53.1385 20.1476 54.1755L18.8281 53.6962C19.6401 51.7247 21.5296 50.994 23.3644 50.994C25.1992 50.994 27.6195 51.7955 27.6195 55.0315V63.2241H26.2298V61.3152H26.1439ZM19.8743 59.9173C19.8743 61.3782 21.0455 62.2188 22.6148 62.2188C24.8322 62.2188 26.2298 60.5772 26.2298 58.5975V56.8538C25.8237 57.2545 24.0748 57.4742 23.0911 57.5922C21.0611 57.8436 19.8743 58.4563 19.8743 59.9173ZM32.7062 63.2241H31.3164V47.1375H32.7062V56.8383H32.8779L38.4993 51.1592H40.256L35.1266 56.3277L40.5686 63.2241H38.7884L34.0881 57.2467L32.7062 58.5503V63.2241ZM44.281 63.2241H42.8834V51.1592H44.281V63.2241ZM44.6401 48.0798C44.6401 48.6298 44.1637 49.0855 43.5939 49.0855C43.0241 49.0855 42.5554 48.6298 42.5554 48.0798C42.5554 47.5301 43.0241 47.0745 43.5939 47.0745C44.1637 47.0745 44.6401 47.5301 44.6401 48.0798ZM52.6098 52.2825C50.7204 52.2825 49.3463 53.5783 49.3463 55.6833V63.2241H47.9564V51.1592H49.3071V53.0522H49.432C49.9941 51.8191 51.2045 51.0021 52.9612 51.0021C55.3815 51.0021 57.029 52.5494 57.029 55.4086V63.2241H55.6391V55.4949C55.6391 53.5233 54.4522 52.2825 52.6098 52.2825ZM70.2142 63.5382C70.2142 66.6017 68.1061 68 65.264 68C62.8125 68 61.2823 66.963 60.5794 65.5805L61.7194 64.8266C62.2269 65.7457 63.2105 66.7429 65.264 66.7429C67.3879 66.7429 68.8166 65.6985 68.8166 63.4519V60.7342H68.6917C68.2153 61.8416 67.1614 63.0984 65.0064 63.0984C62.1331 63.0984 60.0719 60.8599 60.0719 57.1601C60.0719 53.492 62.0628 50.994 65.0298 50.994C67.2314 50.994 68.223 52.3765 68.7151 53.4607H68.8554V51.1592H70.2142V63.5382ZM61.4695 57.1365C61.4695 59.9014 62.7891 61.8181 65.1702 61.8181C67.4813 61.8181 68.8401 60.0507 68.8401 57.1365C68.8401 54.3089 67.5205 52.2666 65.1702 52.2666C62.7656 52.2666 61.4695 54.4188 61.4695 57.1365ZM82.2631 51.1592H84.8006V52.3765H82.2631V60.0743C82.2631 61.5902 83.1297 62.0381 84.0747 62.0381C84.4415 62.0381 84.6914 61.9832 84.8864 61.9279L85.1832 63.1928C84.9179 63.2949 84.5273 63.4047 83.9498 63.4047C82.4115 63.4047 80.8655 62.3758 80.8655 60.4043V52.3765H79.0776V51.1592H80.8655V48.2686H82.2631V51.1592ZM97.2442 60.6476C96.6974 62.1638 95.0814 63.4755 92.6765 63.4755C89.3192 63.4755 87.2114 60.9226 87.2114 57.2622C87.2114 53.6096 89.3584 50.994 92.4658 50.994C95.0657 50.994 97.541 52.887 97.541 56.9168V57.608H88.6087C88.6713 60.3965 90.225 62.1952 92.6765 62.1952C94.3786 62.1952 95.464 61.2997 95.9246 60.2159L97.2442 60.6476ZM92.4658 52.2666C90.2719 52.2666 88.7651 54.1283 88.6167 56.3745H96.1199C96.1199 54.0498 94.6128 52.2666 92.4658 52.2666ZM109.863 59.7053C109.543 61.8888 107.786 63.4755 105.288 63.4755C102.063 63.4755 99.9866 60.8441 99.9866 57.2467C99.9866 53.6177 102.126 50.994 105.264 50.994C107.669 50.994 109.528 52.5022 109.855 54.741H108.45C108.153 53.374 106.998 52.2666 105.288 52.2666C102.985 52.2666 101.384 54.2776 101.384 57.1996C101.384 60.137 102.938 62.1952 105.288 62.1952C106.881 62.1952 108.138 61.2448 108.458 59.7053H109.863ZM117.558 52.2825C115.637 52.2825 114.231 53.5783 114.231 55.6833V63.2241H112.842V47.1375H114.231V53.0522H114.356C114.919 51.8032 116.097 51.0021 117.909 51.0021C120.345 51.0021 122 52.5335 122 55.4086V63.2241H120.603V55.4949C120.603 53.5075 119.416 52.2825 117.558 52.2825Z" fill="#202020"/>
</svg>
