<svg width="203" height="48" viewBox="0 0 203 48" fill="none" xmlns="http://www.w3.org/2000/svg">
<path fill-rule="evenodd" clip-rule="evenodd" d="M38.9811 48L0 0H38.9811C52.2291 0 62.9692 10.7452 62.9692 24C62.9692 37.2547 52.2291 48 38.9811 48ZM56.972 24C56.972 33.0258 50.3322 40.5002 41.6727 41.7999L34.4703 32.9307C35.4498 30.1336 35.9825 27.1273 35.9825 24C35.9825 17.0848 33.384 10.7768 29.1107 5.99999H38.9811C48.9173 5.99999 56.972 14.0589 56.972 24ZM29.9853 24C29.9853 25.0623 29.9067 26.1056 29.7549 27.1245L12.5997 5.99999H19.8131C25.9086 9.67469 29.9853 16.361 29.9853 24ZM82.4015 18.5692C82.4015 18.0548 82.1738 17.6799 81.7182 17.4447C80.6015 16.8714 79.3893 16.5847 78.0818 16.5847C76.5683 16.5847 75.2094 16.9228 74.0045 17.599C72.7996 18.2605 71.8519 19.1866 71.1615 20.3773C70.4855 21.568 70.1477 22.9131 70.1477 24.4125C70.1477 26.103 70.5075 27.5436 71.2276 28.7343C71.9476 29.925 72.9098 30.829 74.1147 31.4464C75.3196 32.049 76.642 32.3505 78.0818 32.3505C79.3748 32.3505 80.5942 32.0638 81.7403 31.4905C81.9607 31.3876 82.1297 31.2407 82.2472 31.0495C82.3646 30.8584 82.4235 30.6453 82.4235 30.4101C82.4235 30.0867 82.3133 29.7854 82.0929 29.506C81.8284 29.1826 81.5051 29.0209 81.1232 29.0209C80.9176 29.0209 80.6824 29.0798 80.4179 29.1973C79.7567 29.5354 78.9781 29.7045 78.0818 29.7045C76.5683 29.7045 75.3417 29.2562 74.4012 28.3594C73.4756 27.4627 73.0127 26.1471 73.0127 24.4125C73.0127 23.3982 73.2183 22.5015 73.6298 21.7224C74.0414 20.9286 74.6289 20.3185 75.393 19.8922C76.1571 19.4512 77.0532 19.2307 78.0818 19.2307C78.9193 19.2307 79.6979 19.3998 80.4179 19.7379C80.6676 19.8702 80.9176 19.9363 81.1673 19.9363C81.5347 19.9363 81.8357 19.782 82.0709 19.4733C82.2913 19.1793 82.4015 18.8779 82.4015 18.5692ZM95.0069 20.4876C94.7569 20.2377 94.4412 20.1127 94.0592 20.1127C93.677 20.1127 93.3612 20.245 93.1116 20.5096C92.8616 20.7595 92.7369 21.0756 92.7369 21.4578V21.4798C92.3106 21.0829 91.7892 20.7595 91.1721 20.5096C90.555 20.245 89.8938 20.1127 89.1886 20.1127C88.2041 20.1127 87.3004 20.3773 86.4778 20.9065C85.6695 21.421 85.0304 22.1487 84.5603 23.0895C84.09 24.0156 83.8551 25.0667 83.8551 26.2426C83.8551 27.4186 84.09 28.4697 84.5603 29.3958C85.0452 30.3219 85.6988 31.0495 86.5218 31.5787C87.3445 32.0931 88.2629 32.3505 89.2767 32.3505C89.9672 32.3505 90.6211 32.2034 91.2382 31.9095C91.8698 31.6008 92.3695 31.2333 92.7369 30.807C92.7514 31.1892 92.8764 31.5053 93.1116 31.7551C93.3612 32.0049 93.677 32.13 94.0592 32.13C94.4412 32.13 94.7569 32.0049 95.0069 31.7551C95.2566 31.4905 95.3816 31.1671 95.3816 30.7849V21.4578C95.3816 21.0609 95.2566 20.7375 95.0069 20.4876ZM91.9435 28.8886C91.3409 29.5795 90.5623 29.925 89.6073 29.925C88.6521 29.925 87.8735 29.5795 87.2712 28.8886C86.6834 28.183 86.3896 27.301 86.3896 26.2426C86.3896 25.1842 86.6906 24.3022 87.2932 23.5966C87.8955 22.891 88.6669 22.5382 89.6073 22.5382C90.5623 22.5382 91.3409 22.891 91.9435 23.5966C92.5458 24.3022 92.8471 25.1842 92.8471 26.2426C92.8471 27.301 92.5458 28.183 91.9435 28.8886ZM100.716 31.7551C100.981 31.4905 101.113 31.1671 101.113 30.7849V17.158C101.113 16.7759 100.988 16.4598 100.738 16.2099C100.488 15.9453 100.18 15.813 99.8124 15.813C99.4305 15.813 99.1072 15.9453 98.8427 16.2099C98.593 16.4598 98.468 16.7759 98.468 17.158V30.7849C98.468 31.1671 98.593 31.4905 98.8427 31.7551C99.0924 32.0049 99.4009 32.13 99.7683 32.13C100.15 32.13 100.466 32.0049 100.716 31.7551ZM120.805 21.4578C120.247 20.5611 119.241 20.1127 117.786 20.1127C116.919 20.1127 116.141 20.3626 115.45 20.8624C114.774 21.3623 114.267 21.9208 113.929 22.5382C113.415 20.9213 112.232 20.1127 110.381 20.1127C109.632 20.1127 108.948 20.3039 108.331 20.686C107.729 21.0536 107.229 21.5019 106.833 22.0311V21.6783C106.833 21.2961 106.708 20.98 106.458 20.7301C106.208 20.4655 105.892 20.3332 105.51 20.3332C105.128 20.3332 104.812 20.4655 104.562 20.7301C104.313 20.98 104.188 21.2961 104.188 21.6783V30.7849C104.188 31.1671 104.313 31.4905 104.562 31.7551C104.812 32.0049 105.128 32.13 105.51 32.13C105.892 32.13 106.208 32.0049 106.458 31.7551C106.708 31.4905 106.833 31.1671 106.833 30.7849V25.1401C106.833 24.3904 107.06 23.773 107.516 23.2879C107.986 22.7881 108.633 22.5382 109.455 22.5382C110.249 22.5382 110.8 22.7735 111.108 23.2438C111.431 23.6996 111.593 24.3316 111.593 25.1401V30.7849C111.593 31.1671 111.718 31.4905 111.968 31.7551C112.218 32.0049 112.533 32.13 112.915 32.13C113.298 32.13 113.613 32.0049 113.863 31.7551C114.113 31.4905 114.238 31.1671 114.238 30.7849V25.1401C114.238 24.3904 114.466 23.773 114.921 23.2879C115.391 22.7881 116.038 22.5382 116.86 22.5382C117.654 22.5382 118.205 22.7735 118.513 23.2438C118.837 23.6996 118.998 24.3316 118.998 25.1401V30.7849C118.998 31.1671 119.123 31.4905 119.373 31.7551C119.623 32.0049 119.939 32.13 120.321 32.13C120.703 32.13 121.019 32.0049 121.268 31.7551C121.518 31.4905 121.643 31.1671 121.643 30.7849V25.1401C121.643 23.5673 121.364 22.3398 120.805 21.4578ZM141.063 17.7313C140.078 17.0405 138.895 16.695 137.515 16.695H132.247C131.865 16.695 131.542 16.8273 131.277 17.0919C131.027 17.3418 130.903 17.6579 130.903 18.04V30.7849C130.903 31.1671 131.027 31.4905 131.277 31.7551C131.542 32.0049 131.865 32.13 132.247 32.13H137.515C138.895 32.13 140.078 31.792 141.063 31.1157C142.062 30.4248 142.818 29.4987 143.333 28.3374C143.862 27.1614 144.126 25.8531 144.126 24.4125C144.126 22.9719 143.862 21.671 143.333 20.5096C142.818 19.3337 142.062 18.4076 141.063 17.7313ZM140.269 28.1389C139.608 29.1091 138.617 29.5942 137.294 29.5942H133.658V19.2307H137.294C138.602 19.2307 139.586 19.7232 140.247 20.7081C140.923 21.6783 141.261 22.9131 141.261 24.4125C141.261 25.9119 140.931 27.154 140.269 28.1389ZM153.666 20.4876C153.372 20.2377 153.005 20.1127 152.564 20.1127C151.844 20.1127 151.168 20.2744 150.536 20.5978C149.904 20.9065 149.42 21.3623 149.082 21.9649V21.6783C149.082 21.2961 148.957 20.98 148.707 20.7301C148.457 20.4655 148.141 20.3332 147.759 20.3332C147.377 20.3332 147.061 20.4655 146.812 20.7301C146.562 20.98 146.437 21.2961 146.437 21.6783V30.7849C146.437 31.1671 146.562 31.4905 146.812 31.7551C147.061 32.0049 147.377 32.13 147.759 32.13C148.141 32.13 148.457 32.0049 148.707 31.7551C148.957 31.4905 149.082 31.1671 149.082 30.7849V25.5591C149.082 24.8976 149.192 24.3316 149.412 23.8612C149.647 23.3761 149.941 23.016 150.294 22.7808C150.646 22.5456 151.014 22.428 151.396 22.428C151.572 22.428 151.734 22.45 151.881 22.4941C152.042 22.5382 152.145 22.5676 152.189 22.5823C152.468 22.6853 152.718 22.7367 152.939 22.7367C153.262 22.7367 153.541 22.6264 153.776 22.4059C154.011 22.1707 154.129 21.8253 154.129 21.3696C154.129 21.0315 153.974 20.7375 153.666 20.4876ZM158.109 31.7551C158.359 31.4905 158.483 31.1671 158.483 30.7849V21.6783C158.483 21.2961 158.359 20.98 158.109 20.7301C157.859 20.4655 157.543 20.3332 157.161 20.3332C156.779 20.3332 156.463 20.4655 156.213 20.7301C155.964 20.98 155.839 21.2961 155.839 21.6783V30.7849C155.839 31.1671 155.964 31.4905 156.213 31.7551C156.463 32.0049 156.779 32.13 157.161 32.13C157.543 32.13 157.859 32.0049 158.109 31.7551ZM156.081 18.6574C156.287 18.8191 156.64 18.9 157.139 18.9C157.653 18.9 158.013 18.8265 158.219 18.6795C158.439 18.5178 158.549 18.2238 158.549 17.7975V17.3785C158.549 16.9669 158.447 16.6803 158.241 16.5186C158.035 16.3569 157.675 16.276 157.161 16.276C156.676 16.276 156.323 16.3569 156.103 16.5186C155.883 16.6803 155.772 16.9669 155.772 17.3785V17.7975C155.772 18.2091 155.875 18.4958 156.081 18.6574ZM171.141 20.7081C170.906 20.4729 170.612 20.3553 170.259 20.3553C170.01 20.3406 169.782 20.4067 169.576 20.5537C169.371 20.7008 169.209 20.9139 169.091 21.1932L166.072 28.1389L163.031 21.1711C162.913 20.9065 162.737 20.7008 162.502 20.5537C162.267 20.4067 162.01 20.3332 161.73 20.3332C161.363 20.3332 161.055 20.4582 160.805 20.7081C160.555 20.9433 160.43 21.2079 160.43 21.5019C160.43 21.7371 160.482 21.9723 160.584 22.2075L164.684 31.2921C164.801 31.5567 164.963 31.7699 165.168 31.9315C165.389 32.0786 165.624 32.152 165.874 32.152L166.072 32.13C166.322 32.1152 166.542 32.0345 166.733 31.8874C166.939 31.7403 167.093 31.5419 167.196 31.2921L171.317 22.2075C171.435 21.9429 171.494 21.7224 171.494 21.546C171.494 21.2079 171.376 20.9286 171.141 20.7081ZM175.693 31.7551C175.942 31.4905 176.067 31.1671 176.067 30.7849V21.6783C176.067 21.2961 175.942 20.98 175.693 20.7301C175.443 20.4655 175.127 20.3332 174.745 20.3332C174.363 20.3332 174.047 20.4655 173.797 20.7301C173.547 20.98 173.423 21.2961 173.423 21.6783V30.7849C173.423 31.1671 173.547 31.4905 173.797 31.7551C174.047 32.0049 174.363 32.13 174.745 32.13C175.127 32.13 175.443 32.0049 175.693 31.7551ZM173.665 18.6574C173.871 18.8191 174.223 18.9 174.723 18.9C175.237 18.9 175.597 18.8265 175.803 18.6795C176.023 18.5178 176.134 18.2238 176.134 17.7975V17.3785C176.134 16.9669 176.031 16.6803 175.825 16.5186C175.619 16.3569 175.259 16.276 174.745 16.276C174.26 16.276 173.908 16.3569 173.687 16.5186C173.467 16.6803 173.357 16.9669 173.357 17.3785V17.7975C173.357 18.2091 173.46 18.4958 173.665 18.6574ZM188.196 21.4578C187.623 20.5611 186.587 20.1127 185.089 20.1127C184.325 20.1127 183.619 20.3039 182.973 20.686C182.341 21.0682 181.827 21.5239 181.43 22.0531V21.6783C181.43 21.2961 181.305 20.98 181.056 20.7301C180.806 20.4655 180.49 20.3332 180.108 20.3332C179.726 20.3332 179.41 20.4655 179.16 20.7301C178.91 20.98 178.786 21.2961 178.786 21.6783V30.7849C178.786 31.1671 178.91 31.4905 179.16 31.7551C179.41 32.0049 179.726 32.13 180.108 32.13C180.49 32.13 180.806 32.0049 181.056 31.7551C181.305 31.4905 181.43 31.1671 181.43 30.7849V25.1401C181.43 24.3904 181.673 23.773 182.158 23.2879C182.642 22.7881 183.311 22.5382 184.163 22.5382C184.986 22.5382 185.566 22.7735 185.904 23.2438C186.242 23.6996 186.411 24.3316 186.411 25.1401V30.7849C186.411 31.1671 186.536 31.4905 186.786 31.7551C187.035 32.0049 187.351 32.13 187.733 32.13C188.115 32.13 188.431 32.0049 188.681 31.7551C188.931 31.4905 189.056 31.1671 189.056 30.7849V25.1401C189.056 23.5673 188.769 22.3398 188.196 21.4578ZM202.625 20.4876C202.376 20.2377 202.06 20.1127 201.678 20.1127C201.296 20.1127 200.98 20.245 200.73 20.5096C200.48 20.7595 200.355 21.0756 200.355 21.4578V21.7003C199.959 21.2593 199.437 20.8845 198.791 20.5758C198.144 20.2671 197.446 20.1127 196.697 20.1127C195.683 20.1127 194.757 20.3773 193.92 20.9065C193.097 21.421 192.443 22.1487 191.958 23.0895C191.488 24.0156 191.253 25.0667 191.253 26.2426C191.253 27.4186 191.496 28.4697 191.98 29.3958C192.465 30.3219 193.126 31.0495 193.964 31.5787C194.816 32.0931 195.756 32.3505 196.785 32.3505C197.534 32.3505 198.232 32.1668 198.879 31.7992C199.54 31.4317 200.032 31.0202 200.355 30.5644V31.6228C200.355 32.4166 200.084 33.0268 199.54 33.453C199.011 33.894 198.203 34.1145 197.116 34.1145C196.572 34.1145 195.962 33.9822 195.286 33.7176C194.625 33.4678 194.265 33.3355 194.206 33.3207C194.074 33.2766 193.935 33.2545 193.788 33.2545C193.538 33.2545 193.303 33.3355 193.082 33.4971C192.877 33.6735 192.73 33.9233 192.642 34.2468C192.597 34.3791 192.575 34.4966 192.575 34.5996C192.575 35.1436 192.935 35.5698 193.655 35.8785C193.979 36.0256 194.522 36.1724 195.286 36.3195C196.065 36.4666 196.675 36.54 197.116 36.54C198.82 36.54 200.223 36.1062 201.325 35.239C202.442 34.3863 203 33.0633 203 31.27V21.4578C203 21.0609 202.875 20.7375 202.625 20.4876ZM199.518 28.8886C198.901 29.5795 198.1 29.925 197.116 29.925C196.131 29.925 195.33 29.5795 194.713 28.8886C194.096 28.183 193.788 27.301 193.788 26.2426C193.788 25.1842 194.096 24.3022 194.713 23.5966C195.33 22.891 196.131 22.5382 197.116 22.5382C198.1 22.5382 198.901 22.891 199.518 23.5966C200.15 24.3022 200.465 25.1842 200.465 26.2426C200.465 27.301 200.15 28.183 199.518 28.8886Z" fill="#202020"/>
</svg>
