<svg width="91" height="58" viewBox="0 0 91 58" fill="none" xmlns="http://www.w3.org/2000/svg">
<path d="M0 30.8796C0.0590253 45.5101 12.0015 57.5 26.6723 57.5C41.3792 57.5 53.3437 45.5584 53.3437 30.8796V27.1215C53.3437 21.0772 58.2709 16.1593 64.327 16.1593C70.3835 16.1593 75.3098 21.0772 75.3098 27.1215C75.3098 28.851 76.7148 30.2535 78.4479 30.2535H87.8619C89.5959 30.2535 91 28.851 91 27.1215C91 12.4426 79.0353 0.5 64.3279 0.5C49.6209 0.5 37.6554 12.4426 37.6554 27.1215V30.8796C37.6554 36.9247 32.7281 41.8408 26.6732 41.8408C20.6174 41.8408 15.6901 36.9247 15.6901 30.8796C15.6901 29.15 14.285 27.7475 12.5521 27.7475H3.13802C1.40515 27.7484 0 29.15 0 30.8796Z" fill="#202020"/>
</svg>
