<svg width="195" height="52" viewBox="0 0 195 52" fill="none" xmlns="http://www.w3.org/2000/svg">
<path fill-rule="evenodd" clip-rule="evenodd" d="M64.9263 20.5544C54.2778 7.30463 43.4886 0.5 32.5521 0.5C21.6155 0.5 10.8263 7.30463 0.177757 20.5544C0.0627677 20.6975 0 20.8762 0 21.0606V30.9395C0 31.1239 0.0627677 31.3026 0.177757 31.4457C10.8263 44.6953 21.6155 51.5 32.5521 51.5C43.4886 51.5 54.2778 44.6953 64.9263 31.4457C65.0413 31.3026 65.1042 31.1239 65.1042 30.9395V21.0606C65.1042 20.8762 65.0413 20.6975 64.9263 20.5544ZM7.48758 31.4211L1.58791 23.4686V30.6539C12.0506 43.5989 22.3742 49.8947 32.5521 49.8947C42.6604 49.8947 52.9125 43.6846 63.3019 30.9181L56.3586 21.5586C48.2952 11.7822 40.1553 7.0448 31.9414 7.0448C23.8706 7.0448 15.4853 11.6172 6.78125 21.0389L10.4837 24.782C17.6867 15.3148 25.0373 10.3789 32.5521 10.3789C40.2474 10.3789 47.7709 15.555 55.1397 25.4727L59.9857 30.3719C60.2865 30.6758 60.2969 31.1651 60.0095 31.4819C50.9835 41.4365 42.0332 46.5607 33.1628 46.5607C24.2805 46.5607 15.7317 41.4243 7.51283 31.4534C7.50413 31.4428 7.49571 31.4321 7.48758 31.4211ZM63.5163 21.3462V28.5315L57.6166 20.579C57.6083 20.568 57.6 20.5572 57.5915 20.5467C49.3725 10.5759 40.8238 5.43947 31.9414 5.43947C23.071 5.43947 14.1206 10.5636 5.09454 20.5182C4.80732 20.835 4.81784 21.3243 5.11839 21.6281L9.96449 26.5274C17.3333 36.4452 24.8567 41.6211 32.5521 41.6211C40.0667 41.6211 47.4174 36.6854 54.6205 27.218L58.3229 30.9611C49.6189 40.3828 41.2335 44.9554 33.1628 44.9554C24.949 44.9554 16.8088 40.2178 8.74568 30.4414L1.80223 21.0819C12.1916 8.31541 22.4438 2.10533 32.5521 2.10533C42.7299 2.10533 53.0535 8.40111 63.5163 21.3462ZM32.5521 40.0158C25.7164 40.0158 18.7139 35.4824 11.5611 26C18.7139 16.5178 25.7164 11.9843 32.5521 11.9843C39.3877 11.9843 46.3904 16.5178 53.5429 26C46.3904 35.4824 39.3877 40.0158 32.5521 40.0158ZM84.8768 18.0238C81.1166 18.0238 78.2457 20.9005 78.2457 26.0119C78.2457 31.1232 81.1166 34.0257 84.8768 34.0257C88.6369 34.0257 91.5079 31.1232 91.5079 26.0119C91.5079 20.9005 88.6369 18.0238 84.8768 18.0238ZM84.8768 16.3799C90.0851 16.3799 93.3117 20.3354 93.3117 26.0119C93.3117 31.6883 90.0851 35.6695 84.8768 35.6695C79.6684 35.6695 76.4418 31.6883 76.4418 26.0119C76.4418 20.3354 79.6684 16.3799 84.8768 16.3799ZM96.237 21.517H97.8122V23.8543C98.4982 22.5444 99.7939 21.2858 102.36 21.2858C105.587 21.2858 106.959 23.2379 106.959 26.6283V35.3356H105.383V27.065C105.383 24.4708 104.697 22.7242 101.953 22.7242C99.5906 22.7242 97.8122 24.7276 97.8122 27.6557V35.3356H96.237V21.517ZM121.66 31.2003C120.974 34.0771 118.764 35.6695 115.741 35.6695C111.752 35.6695 109.287 32.7671 109.287 28.4777C109.287 24.0341 112.031 21.2858 115.69 21.2858C119.526 21.2858 121.991 24.5735 121.787 28.8886H110.913C110.99 32.2534 113.048 34.2055 115.842 34.2055C117.976 34.2055 119.475 33.1267 120.009 31.2003H121.66ZM120.06 27.4246C120.06 25.0872 118.408 22.7242 115.664 22.7242C113.124 22.7242 111.294 24.3423 110.964 27.4246H120.06ZM132.067 18.0238C128.307 18.0238 125.436 20.9005 125.436 26.0119C125.436 31.1232 128.307 34.0257 132.067 34.0257C135.828 34.0257 138.699 31.1232 138.699 26.0119C138.699 20.9005 135.828 18.0238 132.067 18.0238ZM132.067 16.3799C137.276 16.3799 140.502 20.3354 140.502 26.0119C140.502 31.6883 137.276 35.6695 132.067 35.6695C126.859 35.6695 123.632 31.6883 123.632 26.0119C123.632 20.3354 126.859 16.3799 132.067 16.3799ZM149.297 22.7242C147.239 22.7242 144.901 24.368 144.901 28.4777C144.901 32.5873 147.239 34.2312 149.297 34.2312C151.837 34.2312 153.641 32.1507 153.641 28.4777C153.641 24.8047 151.837 22.7242 149.297 22.7242ZM149.627 21.2858C152.777 21.2858 155.343 23.88 155.343 28.4777C155.343 33.0753 152.777 35.6695 149.627 35.6695C147.594 35.6695 145.994 34.7192 145.003 33.0496V39.8305H143.428V21.517H145.003V23.88C145.994 22.2361 147.594 21.2858 149.627 21.2858ZM156.44 21.517H158.701V18.409H160.302V21.517H162.995V22.904H160.302V31.7397C160.302 33.512 160.353 33.8973 162.182 33.8973H162.995V35.3356H161.699C159.26 35.3356 158.701 34.7962 158.701 32.0479V22.904H156.44V21.517ZM165.708 35.3356V21.517H167.283V35.3356H165.708ZM165.708 19.2567V16.7138H167.283V19.2567H165.708ZM170.025 28.4777C170.025 24.1882 172.311 21.2858 176.3 21.2858C179.425 21.2858 181.509 23.4947 181.915 25.9605H180.264C179.755 23.88 178.155 22.7499 176.148 22.7499C173.81 22.7499 171.702 24.6506 171.702 28.452C171.702 32.3818 173.81 34.2055 176.173 34.2055C178.511 34.2055 179.959 32.69 180.365 30.9691H182.042C181.508 33.8202 179.197 35.6695 176.173 35.6695C172.311 35.6695 170.025 32.7157 170.025 28.4777ZM189.411 21.2601C192.358 21.2601 194.339 23.1094 194.67 25.2927H193.018C192.688 23.6488 191.189 22.6728 189.258 22.6728C187.759 22.6728 185.777 23.2636 185.777 24.9331C185.777 26.2944 186.819 27.0136 188.344 27.2961L190.274 27.6557C192.51 28.0667 195 28.8373 195 31.4572C195 34.2055 192.536 35.6695 189.563 35.6695C186.743 35.6695 184.304 34.2568 183.897 31.0976H185.549C185.828 33.2551 187.607 34.2568 189.69 34.2568C191.341 34.2568 193.399 33.5633 193.399 31.714C193.399 30.0958 191.875 29.5308 190.02 29.1712L187.886 28.7602C185.93 28.3492 184.177 27.2448 184.177 25.0615C184.177 22.8783 186.336 21.2601 189.411 21.2601Z" fill="#202020"/>
</svg>
